<?xml version="1.0" encoding="utf-8"?>
<!-- Generator: Adobe Illustrator 24.3.0, SVG Export Plug-In . SVG Version: 6.00 Build 0)  -->
<svg version="1.1" id="Layer_1" xmlns="http://www.w3.org/2000/svg" xmlns:xlink="http://www.w3.org/1999/xlink" x="0px" y="0px"
	 viewBox="0 0 100 100" style="enable-background:new 0 0 100 100;" xml:space="preserve">
<style type="text/css">
	.st0{fill:#FFFFFF;stroke:#211915;stroke-width:3;stroke-miterlimit:10;}
	.st1{fill:#211915;}
</style>
<g>
	<path class="st0" d="M86.6,6.5H13.4c-3.9,0.1-7,3.3-6.9,7.2v72.7c-0.1,3.9,3,7.1,6.9,7.2h73.2c3.9-0.1,7-3.3,6.9-7.2V13.7
		C93.6,9.8,90.5,6.5,86.6,6.5z"/>
	<path class="st1" d="M26.3,33.8c-5-0.1-9-4.3-9-9.3c-0.1-5,3.9-9.2,9-9.3c5,0.1,9.1,4.3,9,9.3C35.4,29.5,31.4,33.7,26.3,33.8z"/>
	<path class="st1" d="M74.7,83.5c-5.1,0.2-9.5-3.8-9.7-8.9c-0.2-5.1,3.8-9.5,8.9-9.7c5.1-0.2,9.5,3.8,9.7,8.9c0,0.1,0,0.2,0,0.4
		C83.8,79.2,79.8,83.4,74.7,83.5z"/>
	<path class="st1" d="M74.2,34c-5-0.1-9-4.3-9-9.3c-0.2-4.9,3.7-9.1,8.6-9.3c4.9-0.2,9.1,3.7,9.3,8.6c0,0.2,0,0.5,0,0.7
		C83.2,29.7,79.2,33.9,74.2,34z"/>
	<path class="st1" d="M26.6,83.3c-5.1-0.2-9.1-4.5-8.9-9.7c0.2-4.9,4.1-8.8,8.9-8.9c5.1,0.2,9.1,4.5,9,9.6
		C35.3,79.2,31.4,83.1,26.6,83.3z"/>
	<path class="st1" d="M50,59.4c-5.1,0.2-9.5-3.8-9.7-8.9s3.8-9.5,8.9-9.7s9.5,3.8,9.7,8.9c0,0.1,0,0.2,0,0.4
		C59,55.1,55,59.3,50,59.4z"/>
</g>
</svg>
