<?xml version="1.0" encoding="utf-8"?>
<!-- Generator: Adobe Illustrator 24.3.0, SVG Export Plug-In . SVG Version: 6.00 Build 0)  -->
<svg version="1.1" id="Layer_1" xmlns="http://www.w3.org/2000/svg" xmlns:xlink="http://www.w3.org/1999/xlink" x="0px" y="0px"
	 viewBox="0 0 100 100" style="enable-background:new 0 0 100 100;" xml:space="preserve">
<style type="text/css">
	.st0{fill:#FFFFFF;stroke:#211915;stroke-width:3;stroke-miterlimit:10;}
	.st1{fill:#211915;stroke:#211915;stroke-miterlimit:10;}
</style>
<g>
	<path class="st0" d="M86.6,6.5H13.4c-3.9,0.1-7,3.3-6.9,7.2v72.7c-0.1,3.9,3,7.1,6.9,7.2h73.2c3.9-0.1,7-3.3,6.9-7.2V13.7
		C93.6,9.8,90.5,6.6,86.6,6.5z"/>
	<path class="st1" d="M50,56.4c-5.1,0.2-9.5-3.8-9.7-8.9s3.8-9.5,8.9-9.7s9.5,3.8,9.7,8.9c0,0.1,0,0.2,0,0.4
		C59,52.1,55,56.3,50,56.4z"/>
</g>
</svg>
