<?xml version="1.0" encoding="utf-8"?>
<!-- Generator: Adobe Illustrator 24.3.0, SVG Export Plug-In . SVG Version: 6.00 Build 0)  -->
<svg version="1.1" id="Layer_1" xmlns="http://www.w3.org/2000/svg" xmlns:xlink="http://www.w3.org/1999/xlink" x="0px" y="0px"
	 viewBox="0 0 100 100" style="enable-background:new 0 0 100 100;" xml:space="preserve">
<style type="text/css">
	.st0{fill:#FFFFFF;stroke:#211915;stroke-width:3;stroke-miterlimit:10;}
	.st1{fill:#211915;}
</style>
<g>
	<path class="st0" d="M6.5,13.4v73.2c0.1,3.9,3.3,7,7.2,6.9h72.7c3.9,0.1,7.1-3,7.2-6.9V13.4c-0.1-3.9-3.3-7-7.2-6.9H13.7
		C9.8,6.4,6.5,9.5,6.5,13.4z"/>
	<ellipse class="st1" cx="24.5" cy="73.6" rx="9.3" ry="9"/>
	<path class="st1" d="M83.8,24.5c-0.2,5.1-4.5,9.1-9.7,8.9c-4.9-0.2-8.8-4.1-8.9-8.9c0.2-5.1,4.5-9.1,9.7-8.9
		C79.7,15.8,83.6,19.7,83.8,24.5z"/>
	<path class="st1" d="M58.9,50c0.2,5.1-3.8,9.5-8.9,9.7c-5.1,0.2-9.5-3.8-9.7-8.9s3.8-9.5,8.9-9.7c0.1,0,0.2,0,0.4,0
		C54.6,40.9,58.8,44.9,58.9,50z"/>
</g>
</svg>
