<?xml version="1.0" encoding="utf-8"?>
<!-- Generator: Adobe Illustrator 24.3.0, SVG Export Plug-In . SVG Version: 6.00 Build 0)  -->
<svg version="1.1" id="Layer_1" xmlns="http://www.w3.org/2000/svg" xmlns:xlink="http://www.w3.org/1999/xlink" x="0px" y="0px"
	 viewBox="0 0 100 100" style="enable-background:new 0 0 100 100;" xml:space="preserve">
<style type="text/css">
	.st0{fill:#FFFFFF;stroke:#211915;stroke-width:3;stroke-miterlimit:10;}
	.st1{fill:#211915;}
</style>
<g>
	<path class="st0" d="M6.5,13.4v73.2c0.1,3.9,3.3,7,7.2,6.9h72.7c3.9,0.1,7.1-3,7.2-6.9V13.4c-0.1-3.9-3.3-7-7.2-6.9H13.6
		C9.8,6.4,6.5,9.5,6.5,13.4z"/>
	<path class="st1" d="M33.8,73.6c-0.1,5-4.3,9.1-9.3,9c-4.9,0.2-9.1-3.7-9.3-8.6s3.7-9.1,8.6-9.3c0.2,0,0.4,0,0.7,0
		C29.5,64.6,33.7,68.6,33.8,73.6z"/>
	<path class="st1" d="M83.8,24.5c-0.2,5.1-4.5,9.1-9.6,9c-4.9-0.2-8.8-4.1-9-9c0.2-5.1,4.5-9.1,9.7-8.9
		C79.7,15.7,83.6,19.6,83.8,24.5z"/>
</g>
</svg>
